<svg width="66" height="66" viewBox="0 0 66 66" fill="none" xmlns="http://www.w3.org/2000/svg">
<path d="M5.472 17.68C4.536 17.68 3.72 17.53 3.024 17.23C2.34 16.918 1.812 16.516 1.44 16.024C1.08 15.532 0.888 15.004 0.864 14.44C0.864 14.344 0.9 14.26 0.972 14.188C1.044 14.116 1.134 14.08 1.242 14.08H1.602C1.818 14.08 1.95 14.2 1.998 14.44C2.082 15.016 2.412 15.52 2.988 15.952C3.564 16.384 4.392 16.6 5.472 16.6C6.612 16.6 7.458 16.396 8.01 15.988C8.574 15.568 8.856 14.986 8.856 14.242C8.856 13.786 8.718 13.414 8.442 13.126C8.178 12.826 7.788 12.568 7.272 12.352C6.756 12.124 5.976 11.842 4.932 11.506C4.008 11.206 3.282 10.912 2.754 10.624C2.238 10.336 1.854 9.982 1.602 9.562C1.35 9.142 1.224 8.608 1.224 7.96C1.224 7.348 1.386 6.796 1.71 6.304C2.046 5.812 2.526 5.428 3.15 5.152C3.774 4.864 4.518 4.72 5.382 4.72C6.27 4.72 7.032 4.882 7.668 5.206C8.304 5.518 8.784 5.92 9.108 6.412C9.432 6.892 9.606 7.378 9.63 7.87C9.63 7.966 9.594 8.05 9.522 8.122C9.462 8.194 9.372 8.23 9.252 8.23H8.892C8.808 8.23 8.724 8.206 8.64 8.158C8.556 8.098 8.508 8.002 8.496 7.87C8.424 7.27 8.1 6.778 7.524 6.394C6.96 5.998 6.246 5.8 5.382 5.8C4.458 5.8 3.72 5.98 3.168 6.34C2.628 6.7 2.358 7.24 2.358 7.96C2.358 8.428 2.478 8.818 2.718 9.13C2.97 9.43 3.342 9.694 3.834 9.922C4.326 10.138 5.052 10.402 6.012 10.714C6.996 11.026 7.764 11.326 8.316 11.614C8.868 11.902 9.282 12.25 9.558 12.658C9.846 13.066 9.99 13.594 9.99 14.242C9.99 15.322 9.588 16.168 8.784 16.78C7.98 17.38 6.876 17.68 5.472 17.68ZM16.8564 17.68C15.2964 17.68 14.1264 17.242 13.3464 16.366C12.5664 15.478 12.1464 14.29 12.0864 12.802C12.0744 12.478 12.0684 11.95 12.0684 11.218C12.0684 10.474 12.0744 9.934 12.0864 9.598C12.1464 8.11 12.5664 6.928 13.3464 6.052C14.1264 5.164 15.2964 4.72 16.8564 4.72C17.9244 4.72 18.8124 4.918 19.5204 5.314C20.2284 5.698 20.7504 6.19 21.0864 6.79C21.4344 7.378 21.6264 7.984 21.6624 8.608V8.644C21.6624 8.74 21.6264 8.818 21.5544 8.878C21.4824 8.938 21.3924 8.968 21.2844 8.968H20.9244C20.7084 8.968 20.5764 8.842 20.5284 8.59C20.3004 7.57 19.8864 6.85 19.2864 6.43C18.6864 6.01 17.8764 5.8 16.8564 5.8C15.7284 5.8 14.8524 6.118 14.2284 6.754C13.6044 7.39 13.2684 8.368 13.2204 9.688C13.2084 10.012 13.2024 10.51 13.2024 11.182C13.2024 11.854 13.2084 12.364 13.2204 12.712C13.2684 14.032 13.6044 15.01 14.2284 15.646C14.8524 16.282 15.7284 16.6 16.8564 16.6C17.8764 16.6 18.6864 16.39 19.2864 15.97C19.8864 15.55 20.3004 14.83 20.5284 13.81C20.5764 13.558 20.7084 13.432 20.9244 13.432H21.2844C21.3924 13.432 21.4824 13.468 21.5544 13.54C21.6384 13.6 21.6744 13.684 21.6624 13.792C21.6264 14.416 21.4344 15.028 21.0864 15.628C20.7504 16.216 20.2284 16.708 19.5204 17.104C18.8124 17.488 17.9244 17.68 16.8564 17.68ZM24.711 17.5C24.591 17.5 24.495 17.464 24.423 17.392C24.351 17.32 24.315 17.224 24.315 17.104V5.314C24.315 5.194 24.351 5.098 24.423 5.026C24.495 4.942 24.591 4.9 24.711 4.9H28.905C30.201 4.9 31.215 5.206 31.947 5.818C32.679 6.43 33.045 7.336 33.045 8.536C33.045 9.484 32.811 10.252 32.343 10.84C31.875 11.416 31.203 11.806 30.327 12.01L33.225 16.942C33.261 17.014 33.279 17.08 33.279 17.14C33.279 17.236 33.243 17.32 33.171 17.392C33.099 17.464 33.015 17.5 32.919 17.5H32.703C32.523 17.5 32.385 17.464 32.289 17.392C32.205 17.308 32.115 17.182 32.019 17.014L29.157 12.172H25.449V17.104C25.449 17.224 25.407 17.32 25.323 17.392C25.251 17.464 25.155 17.5 25.035 17.5H24.711ZM28.815 11.092C29.859 11.092 30.633 10.882 31.137 10.462C31.653 10.03 31.911 9.388 31.911 8.536C31.911 7.684 31.653 7.048 31.137 6.628C30.633 6.196 29.859 5.98 28.815 5.98H25.449V11.092H28.815ZM40.0947 17.68C37.0107 17.68 35.4267 16.024 35.3427 12.712C35.3307 12.352 35.3247 11.848 35.3247 11.2C35.3247 10.552 35.3307 10.048 35.3427 9.688C35.3907 8.056 35.8347 6.82 36.6747 5.98C37.5147 5.14 38.6547 4.72 40.0947 4.72C41.5347 4.72 42.6747 5.14 43.5147 5.98C44.3547 6.82 44.7987 8.056 44.8467 9.688C44.8707 10.408 44.8827 10.912 44.8827 11.2C44.8827 11.488 44.8707 11.992 44.8467 12.712C44.7627 16.024 43.1787 17.68 40.0947 17.68ZM40.0947 16.6C41.1747 16.6 42.0327 16.276 42.6687 15.628C43.3167 14.968 43.6647 13.966 43.7127 12.622C43.7367 11.902 43.7487 11.428 43.7487 11.2C43.7487 10.972 43.7367 10.498 43.7127 9.778C43.6647 8.434 43.3167 7.438 42.6687 6.79C42.0207 6.13 41.1627 5.8 40.0947 5.8C39.0267 5.8 38.1687 6.13 37.5207 6.79C36.8727 7.438 36.5247 8.434 36.4767 9.778C36.4647 10.138 36.4587 10.612 36.4587 11.2C36.4587 11.788 36.4647 12.262 36.4767 12.622C36.5247 13.966 36.8667 14.968 37.5027 15.628C38.1507 16.276 39.0147 16.6 40.0947 16.6ZM48.1427 17.5C48.0227 17.5 47.9267 17.464 47.8547 17.392C47.7827 17.32 47.7467 17.224 47.7467 17.104V5.296C47.7467 5.176 47.7827 5.08 47.8547 5.008C47.9267 4.936 48.0227 4.9 48.1427 4.9H48.4847C48.6047 4.9 48.7007 4.936 48.7727 5.008C48.8447 5.08 48.8807 5.176 48.8807 5.296V16.42H55.0907C55.2227 16.42 55.3247 16.456 55.3967 16.528C55.4687 16.6 55.5047 16.702 55.5047 16.834V17.104C55.5047 17.224 55.4627 17.32 55.3787 17.392C55.3067 17.464 55.2107 17.5 55.0907 17.5H48.1427ZM58.004 17.5C57.884 17.5 57.788 17.464 57.716 17.392C57.644 17.32 57.608 17.224 57.608 17.104V5.296C57.608 5.176 57.644 5.08 57.716 5.008C57.788 4.936 57.884 4.9 58.004 4.9H58.346C58.466 4.9 58.562 4.936 58.634 5.008C58.706 5.08 58.742 5.176 58.742 5.296V16.42H64.952C65.084 16.42 65.186 16.456 65.258 16.528C65.33 16.6 65.366 16.702 65.366 16.834V17.104C65.366 17.224 65.324 17.32 65.24 17.392C65.168 17.464 65.072 17.5 64.952 17.5H58.004Z" fill="#333333"/>
<g clip-path="url(#clip0_8_52)">
<path d="M33.5127 65.2885L40.7853 58.0159C41.0904 57.7547 41.1259 57.2956 40.8646 56.9905C40.6034 56.6855 40.1443 56.6499 39.8392 56.9112C39.8108 56.9356 39.7842 56.9621 39.7599 56.9905L33.7236 63.0195L33.7236 34.2272C33.7236 33.8256 33.398 33.5 32.9963 33.5C32.5947 33.5 32.2691 33.8256 32.2691 34.2272L32.2691 63.0195L26.2401 56.9905C25.9789 56.6855 25.5198 56.6499 25.2147 56.9112C24.9097 57.1725 24.8741 57.6316 25.1354 57.9366C25.1598 57.9651 25.1863 57.9916 25.2147 58.0159L32.4873 65.2886C32.7709 65.5705 33.229 65.5705 33.5127 65.2885Z" fill="#333333"/>
</g>
<defs>
<clipPath id="clip0_8_52">
<rect width="32" height="32" fill="white" transform="translate(49 33.5) rotate(90)"/>
</clipPath>
</defs>
</svg>
